# xmcd
#
# Track frame offsets: 
#        150
#        55873
#        85553
#        100847
#        132678
#        157219
#
# Disc length: 2361 seconds
#
# Revision: 4
# Processed by: cddbd v1.5.2PL0 Copyright (c) Steve Scherf et al.
# Submitted via: ExactAudioCopy v0.99pb4
#
DISCID=4b093706
DTITLE=Albert King - Chico Hamilton - Little Milton - Montreux Festiva
DTITLE=l
DYEAR=1974
DGENRE=Blues
TTITLE0=Chico Hamilton - In View
TTITLE1=Little Milton - Let Me Down Easy
TTITLE2=Little Milton - We're Gonna Make It
TTITLE3=Albert King - Don't Make No Sense
TTITLE4=Albert King - Call It Stormy Monday
TTITLE5=Albert King - For The Love Of A Woman
EXTD=© 2004\nLabel: Stax Records (Fantasy Inc.]\nSCD24 4132-2\n24 BIT 
EXTD=Remastered
EXTT0=submitted by bledde@algonet.se
EXTT1=Orquestrado
EXTT2=This is a CD from Radio 1 and Arcade.
EXTT3=submitted by bledde@algonet.se
EXTT4=0614
EXTT5=1999\r\nThe 13th Warrior\r\nJerry Goldsmith\r\nLyndhurst Studio,
EXTT5=London Orchestra\r\nVarése Sarabande VSD-6038\r\n\r\nsubmited b
EXTT5=y Timothy Turner
PLAYORDER=
